<?xml version="1.0" standalone="no"?>
<!DOCTYPE svg PUBLIC "-//W3C//DTD SVG 20010904//EN"
 "http://www.w3.org/TR/2001/REC-SVG-20010904/DTD/svg10.dtd">
<svg version="1.0" xmlns="http://www.w3.org/2000/svg"
 width="482.000000pt" height="586.000000pt" viewBox="0 0 482.000000 586.000000"
 preserveAspectRatio="xMidYMid meet">

<g transform="translate(0.000000,586.000000) scale(0.100000,-0.100000)"
fill="#000000" stroke="none">
<path d="M4103 5753 l-531 -3 -24 -27 c-12 -15 -156 -162 -318 -328 -163 -165
-351 -361 -418 -436 -68 -75 -161 -171 -208 -213 -46 -43 -84 -85 -84 -95 0
-10 49 -62 113 -119 109 -98 361 -355 393 -400 8 -12 25 -22 36 -22 27 0 454
427 868 865 347 369 444 470 589 618 130 131 160 166 141 165 -14 -2 -264 -4
-557 -5z"/>
<path d="M120 5739 c0 -6 109 -124 243 -263 133 -139 315 -330 403 -426 181
-196 943 -976 1016 -1040 45 -39 148 -180 148 -202 0 -5 -22 6 -49 26 -27 20
-59 36 -72 36 -18 0 -90 -67 -285 -263 -277 -277 -643 -658 -714 -742 -24 -27
-111 -123 -194 -213 -234 -254 -311 -339 -395 -442 -43 -52 -88 -104 -100
-114 -11 -11 -21 -25 -21 -33 0 -12 15 -13 83 -9 45 4 272 9 503 12 l422 6
294 296 c342 346 582 592 660 677 75 83 171 181 245 250 61 56 63 57 93 45 36
-15 215 -189 340 -330 161 -182 286 -316 485 -520 110 -113 250 -259 310 -323
l110 -118 200 8 c225 9 417 9 678 -2 106 -4 177 -4 177 2 0 5 -24 34 -53 64
-29 29 -75 81 -102 114 -26 33 -94 107 -149 165 -56 57 -158 163 -227 235 -69
71 -150 159 -179 195 -61 73 -254 284 -316 345 -22 22 -83 87 -134 145 -52 58
-200 211 -330 340 -261 261 -623 635 -835 865 -151 164 -228 243 -721 750
-183 187 -357 370 -388 408 l-57 67 -545 0 c-389 0 -544 -3 -544 -11z"/>
<path d="M610 4560 c-14 -5 -45 -14 -70 -21 -25 -7 -61 -22 -80 -33 -19 -10
-52 -28 -72 -39 -100 -54 -202 -186 -237 -307 -7 -25 -17 -55 -22 -68 -12 -29
-12 -174 0 -204 5 -13 14 -41 21 -63 54 -181 178 -314 345 -370 189 -64 324
-60 478 13 130 62 192 129 277 301 61 121 79 216 60 318 -18 106 -38 157 -89
236 -70 106 -146 166 -276 217 -11 4 -33 13 -48 19 -32 13 -249 13 -287 1z
m291 -194 c91 -46 199 -131 218 -171 32 -65 52 -239 33 -279 -6 -12 -18 -48
-28 -81 -17 -60 -51 -105 -78 -105 -8 0 -40 33 -69 73 -30 39 -73 90 -96 112
-22 21 -41 46 -41 55 0 9 -5 21 -11 27 -7 7 -3 19 14 39 13 16 36 51 52 79 15
27 38 63 51 78 40 47 31 58 -46 59 -53 0 -100 -22 -100 -46 0 -20 -58 -76 -79
-76 -11 0 -28 19 -45 51 -17 30 -50 68 -83 93 l-55 44 -52 -14 c-61 -17 -59
-16 -51 -4 10 17 134 82 183 96 26 7 83 12 127 11 71 -2 89 -6 156 -41z m-458
-99 c9 -4 23 -19 29 -34 16 -37 84 -139 120 -181 44 -52 38 -76 -42 -169 -31
-35 -90 -139 -90 -158 0 -8 65 -35 84 -35 8 0 49 41 92 90 42 50 80 90 85 90
9 0 63 -55 103 -105 36 -45 76 -66 132 -68 41 -2 43 -3 25 -17 -10 -8 -20 -22
-23 -30 -6 -17 -76 -55 -123 -65 -59 -14 -177 -17 -208 -5 -58 22 -82 34 -117
61 -19 14 -52 34 -72 44 -56 25 -87 62 -126 145 -32 69 -35 83 -35 170 -1 140
32 226 107 271 16 10 33 15 36 10 3 -4 13 -10 23 -14z"/>
<path d="M3970 4538 c-14 -6 -34 -14 -45 -18 -171 -65 -280 -174 -355 -355
-24 -57 -39 -300 -21 -318 6 -6 11 -20 11 -30 0 -11 19 -58 42 -106 64 -128
171 -229 283 -266 49 -16 175 -35 232 -35 91 0 157 17 252 64 110 53 186 124
247 228 69 117 84 171 84 296 0 115 -6 145 -53 242 -58 123 -228 266 -352 296
-51 12 -298 14 -325 2z m202 -165 c14 -43 20 -50 66 -68 97 -39 129 -100 80
-152 -28 -30 -52 -29 -131 7 -37 17 -79 30 -94 30 -31 0 -83 -45 -83 -72 0
-21 50 -54 95 -63 179 -37 256 -104 255 -224 -1 -73 -26 -112 -92 -143 -39
-20 -63 -39 -79 -65 -27 -46 -47 -63 -73 -63 -26 0 -56 28 -56 53 0 28 -28 57
-56 57 -38 0 -108 36 -131 68 l-23 31 45 45 44 46 62 -40 c49 -31 72 -40 106
-40 53 0 103 24 103 48 0 45 -62 78 -203 107 -37 7 -114 80 -133 123 -25 60
-14 134 29 195 22 32 53 47 112 56 25 4 40 12 42 21 12 91 11 90 57 90 43 0
43 -1 58 -47z"/>
<path d="M4445 3253 c-32 -7 -98 -56 -120 -90 -12 -16 -27 -56 -35 -87 -15
-62 -4 -115 32 -162 23 -29 116 -64 171 -64 80 0 164 44 208 108 21 31 24 47
23 119 0 67 -4 89 -20 110 -20 26 -27 31 -74 51 -28 12 -154 23 -185 15z"/>
<path d="M2245 2833 c-12 -11 -15 -25 -11 -47 4 -17 7 -484 6 -1037 0 -911 1
-1007 16 -1013 8 -3 76 -6 150 -6 l134 0 0 1048 0 1049 -39 11 c-21 7 -84 12
-139 12 -80 0 -104 -3 -117 -17z"/>
<path d="M1702 1503 l3 -768 145 0 145 0 3 768 2 767 -150 0 -150 0 2 -767z"/>
<path d="M2789 2234 c-10 -12 -10 -27 -1 -73 9 -41 12 -253 12 -739 l0 -682
23 -5 c12 -3 78 -4 147 -3 l125 3 3 749 c2 593 0 751 -10 758 -7 4 -74 8 -149
8 -112 0 -139 -3 -150 -16z"/>
<path d="M1150 1655 c-8 -10 -10 -26 -5 -47 5 -18 11 -222 14 -453 l6 -420
148 -3 147 -3 -2 468 -3 468 -146 3 c-121 2 -148 0 -159 -13z"/>
<path d="M3345 1660 c-11 -18 -3 -890 9 -904 8 -10 51 -15 148 -19 133 -6 137
-6 144 15 12 40 6 888 -7 904 -9 11 -43 14 -150 14 -81 0 -140 -4 -144 -10z"/>
<path d="M3902 1267 c-4 -12 -5 -137 -2 -277 l5 -255 115 -2 c63 -1 127 1 143
3 l27 6 0 263 c0 145 -4 266 -8 269 -5 3 -68 7 -141 10 -129 5 -132 5 -139
-17z"/>
<path d="M603 1254 c-3 -8 -1 -60 6 -115 6 -55 11 -162 11 -238 0 -99 4 -141
13 -148 6 -5 73 -9 147 -8 l135 1 3 179 c2 99 0 212 -3 251 -8 91 -14 94 -181
94 -104 0 -126 -3 -131 -16z"/>
<path d="M4432 978 c-11 -14 -22 -211 -13 -226 3 -5 69 -9 146 -8 l140 1 3
109 c2 71 -1 113 -9 122 -16 19 -252 20 -267 2z"/>
<path d="M104 965 c-3 -6 -3 -58 -2 -116 l3 -104 140 4 c77 2 141 4 142 5 1 1
5 51 9 112 l7 110 -148 0 c-101 0 -148 -3 -151 -11z"/>
<path d="M107 424 c-12 -12 -8 -187 6 -226 17 -49 49 -82 103 -107 44 -21 47
-21 2199 -21 2099 0 2157 0 2193 19 82 42 112 102 112 225 0 81 -1 86 -22 91
-13 2 -930 7 -2038 10 -1108 3 -2134 8 -2280 11 -146 3 -268 2 -273 -2z"/>
</g>
</svg>
